# xmcd
#
# Track frame offsets:
#	150
#	18993
#	34901
#	52092
#	66796
#	88748
#	110129
#	123289
#	138434
#	153187
#	168797
#	182498
#
# Disc length: 2623 seconds
#
# Revision: 6
# Processed by: cddbd v1.5.2PL0 Copyright (c) Steve Scherf et al.
# Submitted via: EasyCDDAExtractor 15.3.0.1
#
DISCID=9c0a3d0c
DTITLE=Britney Spears - Blackout
DYEAR=2007
DGENRE=Pop
TTITLE0=Gimme More
TTITLE1=Piece Of Me
TTITLE2=Radar
TTITLE3=Break The Ice
TTITLE4=Heaven On Earth
TTITLE5=Get Naked (I Got A Plan)
TTITLE6=Freakshow
TTITLE7=Toy Soldier
TTITLE8=Hot As Ice
TTITLE9=Ooh Ooh Baby
TTITLE10=Perfect Lover
TTITLE11=Why Should I Be Sad
EXTD=YEAR: 2007
EXTT0=
EXTT1=
EXTT2=
EXTT3=
EXTT4=
EXTT5=
EXTT6=
EXTT7=
EXTT8=
EXTT9=
EXTT10=
EXTT11=
PLAYORDER=
